<svg width="65" height="66" viewBox="0 0 65 66" fill="none" xmlns="http://www.w3.org/2000/svg">
<path d="M48.0464 0.723999H16.8281C12.4212 0.723999 8.19483 2.47463 5.07869 5.59077C1.96254 8.70691 0.211914 12.9333 0.211914 17.3402V48.5585C0.211914 52.9654 1.96254 57.1918 5.07869 60.3079C8.19483 63.4241 12.4212 65.1747 16.8281 65.1747H48.0464C52.4533 65.1747 56.6797 63.4241 59.7958 60.3079C62.912 57.1918 64.6626 52.9654 64.6626 48.5585V17.3402C64.6626 12.9333 62.912 8.70691 59.7958 5.59077C56.6797 2.47463 52.4533 0.723999 48.0464 0.723999ZM51.3193 44.013C51.3193 45.969 50.5423 47.845 49.1591 49.2281C47.776 50.6113 45.9 51.3883 43.944 51.3883H20.9305C18.9745 51.3883 17.0985 50.6113 15.7154 49.2281C14.3323 47.845 13.5552 45.969 13.5552 44.013V28.5977C13.5552 27.2289 14.099 25.9161 15.0669 24.9482C16.0348 23.9803 17.3475 23.4366 18.7163 23.4366H25.6397V21.3004C25.6397 19.4996 26.3551 17.7725 27.6285 16.4991C28.9018 15.2258 30.6289 14.5104 32.4297 14.5104C34.2305 14.5104 35.9576 15.2258 37.231 16.4991C38.5043 17.7725 39.2197 19.4996 39.2197 21.3004V23.4341H46.1431C47.5119 23.4341 48.8247 23.9778 49.7926 24.9457C50.7604 25.9136 51.3042 27.2263 51.3042 28.5952L51.3193 44.013Z" fill="#231F20"/>
</svg>
