<svg xmlns="http://www.w3.org/2000/svg" width="20" zoomAndPan="magnify" viewBox="0 0 720 719.999996" height="20" preserveAspectRatio="xMidYMid meet" version="1.0"><defs><clipPath id="5821b14625"><path d="M 158.457031 539 L 570 539 L 570 588 L 158.457031 588 Z M 158.457031 539 " clip-rule="nonzero"/></clipPath><clipPath id="b869d9cac8"><path d="M 175.816406 114 L 552 114 L 552 491 L 175.816406 491 Z M 175.816406 114 " clip-rule="nonzero"/></clipPath><clipPath id="f86d76658a"><path d="M 175.816406 114 L 466 114 L 466 404 L 175.816406 404 Z M 175.816406 114 " clip-rule="nonzero"/></clipPath></defs><g clip-path="url(#5821b14625)"><path stroke-linecap="round" transform="matrix(32.017729, 0, 0, 32.000001, 158.467406, 510.608852)" fill="none" stroke-linejoin="round" d="M 0.751945 1.666642 L 12.085265 1.666642 " stroke="#231F20" stroke-width="1.5" stroke-opacity="1" stroke-miterlimit="10"/></g><g clip-path="url(#b869d9cac8)"><path stroke-linecap="round" transform="matrix(34.704187, 0, 0, 34.687498, 175.817293, 94.024146)" fill="none" stroke-linejoin="round" d="M 0.751978 1.333426 L 10.085326 10.666647 " stroke="#231F20" stroke-width="1.5" stroke-opacity="1" stroke-miterlimit="10"/></g><g clip-path="url(#f86d76658a)"><path stroke-linecap="round" transform="matrix(34.704187, 0, 0, 34.687498, 175.817293, 94.024146)" fill="none" stroke-linejoin="round" d="M 0.751978 8.180048 L 0.751978 1.333426 L 7.598571 1.333426 " stroke="#231F20" stroke-width="1.5" stroke-opacity="1" stroke-miterlimit="10"/></g></svg>